Coordinates
version=1
nRows=19
nColumns=24
inDegrees=yes

Units are S.I. units (second, meters, Newtons, ...)
Angles are in degrees.

endheader
time	pelvis_tilt	pelvis_list	pelvis_rotation	pelvis_tx	pelvis_ty	pelvis_tz	hip_flexion_r	hip_adduction_r	hip_rotation_r	knee_angle_r	ankle_angle_r	subtalar_angle_r	mtp_angle_r	hip_flexion_l	hip_adduction_l	hip_rotation_l	knee_angle_l	ankle_angle_l	subtalar_angle_l	mtp_angle_l	lumbar_extension	lumbar_bending	lumbar_rotation
      1.50400000	     -5.67046533	      6.89989186	     -1.97165257	      0.38447819	      0.90449627	      0.26451526	     20.05533958	     -9.99734111	     -7.33659541	    -69.04250483	      4.64040104	      6.26650579	      9.69223298	     17.23931085	     11.03935526	     -1.49207456	    -17.68385998	      4.20023513	    -13.87387503	      1.73736527	     -3.35309433	    -12.33254317	      3.74329605
      1.50816667	     -5.60168424	      6.71825309	     -1.81323674	      0.38936558	      0.90583345	      0.26419600	     20.58130489	     -9.77702868	     -7.45738944	    -68.55586424	      5.07176332	      6.14693252	      9.54390116	     16.52846692	     10.94000763	     -1.16324392	    -17.15219935	      4.17489090	    -13.90103013	      1.73498742	     -3.47071178	    -12.10678025	      3.42521042
      1.51233333	     -5.52394550	      6.52636498	     -1.64224199	      0.39423604	      0.90716456	      0.26385253	     21.07830113	     -9.55348049	     -7.59772540	    -68.00972316	      5.47121832	      6.00506523	      9.40325541	     15.81080686	     10.82814562	     -0.82302821	    -16.62347931	      4.15046390	    -13.92293603	      1.72914302	     -3.60326371	    -11.86215693	      3.11445350
      1.51650000	     -5.44093955	      6.33019533	     -1.45779496	      0.39909753	      0.90848097	      0.26349450	     21.54928540	     -9.33083859	     -7.75344512	    -67.40465678	      5.83699007	      5.83517312	      9.25628255	     15.08696328	     10.70925057	     -0.46797050	    -16.08934020	      4.11464454	    -13.95438890	      1.71938191	     -3.74324400	    -11.61510433	      2.77995232
      1.52066667	     -5.36766636	      6.11653078	     -1.25209291	      0.40392005	      0.90975733	      0.26312656	     22.00975592	     -9.09161763	     -7.93016288	    -66.74116873	      6.20452899	      5.63421110	      9.15596360	     14.39203156	     10.56459110	     -0.11802157	    -15.58778928	      4.06676191	    -13.93269500	      1.71074806	     -3.88780212	    -11.35894058	      2.52174331
      1.52483333	     -5.25027197	      5.92143043	     -1.05897939	      0.40879337	      0.91107482	      0.26273603	     22.40695955	     -8.88807073	     -8.11130497	    -66.02164176	      6.46231192	      5.40211440	      8.99608214	     13.61558209	     10.44259519	      0.26262538	    -15.01641056	      4.04122466	    -14.02099825	      1.69351494	     -4.04841037	    -11.08870855	      2.09733027
      1.52900000	     -5.15302982	      5.71034360	     -0.84506987	      0.41363612	      0.91232964	      0.26233646	     22.80464953	     -8.66606722	     -8.30578505	    -65.24640883	      6.72685249	      5.14558596	      8.83779510	     12.87914299	     10.29592769	      0.64883443	    -14.47842674	      3.99625974	    -14.06627858	      1.67390195	     -4.20297797	    -10.81563920	      1.74795756
      1.53316667	     -5.04572195	      5.49735432	     -0.62012103	      0.41846740	      0.91356250	      0.26192471	     23.17291091	     -8.45198046	     -8.51957003	    -64.41916197	      6.95830457	      4.84967481	      8.66914782	     12.13539247	     10.14137523	      1.03487666	    -13.94102776	      3.94900469	    -14.10960597	      1.65120855	     -4.36723191	    -10.53325123	      1.38402187
      1.53733333	     -4.95196975	      5.29937852	     -0.37957292	      0.42328691	      0.91472901	      0.26148653	     23.54189915	     -8.26234153	     -8.74005610	    -63.55292394	      7.19246845	      4.53845017	      8.34735195	     11.40515523	     10.00157280	      1.45193700	    -13.39177911	      3.83377134	    -14.22623886	      1.60182409	     -4.51212335	    -10.28834723	      0.91281785
      1.54150000	     -4.83628768	      5.06840769	     -0.15262192	      0.42809843	      0.91589935	      0.26107757	     23.86526187	     -8.02810122	     -8.95637444	    -62.61259239	      7.31620581	      4.16561911	      8.18267217	     10.66719195	      9.80945267	      1.81066352	    -12.87663065	      3.85386281	    -14.20570086	      1.57851922	     -4.69042136	     -9.97349580	      0.65922981
      1.54566667	     -4.73413065	      4.86398369	      0.09681589	      0.43289498	      0.91699349	      0.26063386	     24.19143669	     -7.83653700	     -9.18785495	    -61.64514635	      7.47156761	      3.76668129	      7.87892332	      9.93818042	      9.64683683	      2.22571483	    -12.33745521	      3.75271248	    -14.28556236	      1.52887256	     -4.86127494	     -9.70364007	      0.18555596
      1.54983333	     -4.63272939	      4.63658897	      0.35365535	      0.43770704	      0.91805832	      0.26017213	     24.48889182	     -7.62747645	     -9.43878038	    -60.60820885	      7.56390114	      3.40890103	      7.30558751	      9.21649148	      9.45386146	      2.64291964	    -11.81331904	      3.71147976	    -14.39389212	      1.43406499	     -5.00270263	     -9.38674323	     -0.24348427
      1.55400000	     -4.51677682	      4.40620078	      0.60402137	      0.44250451	      0.91909462	      0.25976978	     24.75492679	     -7.40255060	     -9.68060766	    -59.51925129	      7.61081679	      2.90920879	      7.19723015	      8.50863025	      9.23358467	      2.94697343	    -11.34072292	      3.71426341	    -14.28341144	      1.41970938	     -5.16970919	     -9.10036507	     -0.39949715
      1.55816667	     -4.39997341	      4.21587633	      0.84958284	      0.44730924	      0.92005964	      0.25933317	     25.01861443	     -7.23088688	     -9.90944580	    -58.41537607	      7.61532590	      2.39547623	      6.88432553	      7.76921996	      9.06100020	      3.32701623	    -10.79780854	      3.66483377	    -14.35391462	      1.37180395	     -5.33147956	     -8.82887024	     -0.92974606
      1.56233333	     -4.28994591	      4.00239554	      1.09347104	      0.45208450	      0.92097696	      0.25892875	     25.26796348	     -7.02201828	    -10.12796797	    -57.24794760	      7.57417203	      1.86438791	      6.63120874	      7.06107685	      8.84972465	      3.67134480	    -10.29767151	      3.65657695	    -14.33442665	      1.33592217	     -5.50568266	     -8.54455303	     -1.24735586
      1.56650000	     -4.17544603	      3.78985112	      1.34034409	      0.45689840	      0.92184780	      0.25851177	     25.48889562	     -6.82473299	    -10.36645782	    -56.03144084	      7.48459442	      1.33022177	      6.45531059	      6.35356190	      8.63106176	      3.97942329	     -9.81022347	      3.68843784	    -14.30597018	      1.31451074	     -5.64200407	     -8.24745464	     -1.54044318
      1.57066667	     -4.07607982	      3.60547191	      1.60546839	      0.46169050	      0.92262968	      0.25807371	     25.71515856	     -6.66623527	    -10.61260782	    -54.79605521	      7.41842867	      0.76556455	      6.08138801	      5.66091084	      8.43995921	      4.32572562	     -9.30646738	      3.61734412	    -14.33886373	      1.26777917	     -5.77522806	     -7.98443456	     -2.02423496
      1.57483333	     -3.96825266	      3.40354684	      1.84277703	      0.46648183	      0.92337481	      0.25768800	     25.91625396	     -6.46980379	    -10.82327042	    -53.50127217	      7.25609271	      0.19398195	      5.89900681	      4.97087381	      8.21545126	      4.60989982	     -8.82735905	      3.66651672	    -14.27141048	      1.25022399	     -5.92298197	     -7.70477807	     -2.26001469
      1.57900000	     -3.87396925	      3.20628333	      2.10505194	      0.47126983	      0.92405241	      0.25728699	     26.10533499	     -6.28730629	    -11.05814538	    -52.16157639	      7.10566089	     -0.37770974	      5.74701359	      4.31413329	      7.99009935	      4.88976820	     -8.37897287	      3.64724710	    -14.20187942	      1.23739905	     -6.04974147	     -7.43710407	     -2.54445737
